# xmcd CD database file
#
# Track frame offsets:
#	150
#	14613
#	31348
#	47385
#	71220
#	86243
#	98158
#	116125
#	137708
#	152180
#	176658
#	186113
#	200258
#
# Disc length: 2855 seconds
#
# Revision: 0
# Processed by: cddbd v1.5.1PL0 Copyright (c) Steve Scherf et al.
# Submitted via: CDex 1.50
#
DISCID=b50b250d
DTITLE=Hanson - Snowed In
DYEAR=1997
DGENRE=Pop
TTITLE0=Merry Christmas baby
TTITLE1=What Chritsmas Means to Me
TTITLE2=Little Saint Nick
TTITLE3=At Christmas
TTITLE4=Christmas(Baby Please Come Home)
TTITLE5=Rockin'bAround The Christmas Tree
TTITLE6=CHristmas Time
TTITLE7=Everybody Knows The Claus
TTITLE8=Run Rudorph Run
TTITLE9=Silent Night Medley
TTITLE10=White Christmas
TTITLE11=MMMBop
TTITLE12=Madeline
EXTD=YEAR: 1997
EXTT0=
EXTT1=
EXTT2=
EXTT3=
EXTT4=
EXTT5=
EXTT6=
EXTT7=
EXTT8=
EXTT9=
EXTT10=
EXTT11=
EXTT12=
PLAYORDER=
